<svg xmlns="http://www.w3.org/2000/svg" viewBox="0 0 64 64" fill="none">
  <rect width="64" height="64" rx="12" fill="#f8fafc" />
  <path
    d="M8 32C12.5 24.2 21 19 32 19C43 19 51.5 24.2 56 32C51.5 39.8 43 45 32 45C21 45 12.5 39.8 8 32Z"
    fill="#0f172a"
  />
  <path
    d="M12.5 32C16.3 26.2 23 22.5 32 22.5C41 22.5 47.7 26.2 51.5 32C47.7 37.8 41 41.5 32 41.5C23 41.5 16.3 37.8 12.5 32Z"
    fill="#ffffff"
  />
  <circle cx="32" cy="32" r="8" fill="#0f172a" />
  <circle cx="35" cy="29" r="2.5" fill="#ffffff" />
</svg>
